<mxfile host="app.diagrams.net" modified="2021-04-22T07:32:52.384Z" agent="5.0 (Macintosh; Intel Mac OS X 10_15_7) AppleWebKit/537.36 (KHTML, like Gecko) Chrome/88.0.4324.192 Safari/537.36" etag="oA3LtdOb6ruLdSCu14eT" version="14.6.5" type="github">
  <diagram id="aLa3FHg2r4vYx-vsww85" name="Page-1">
    <mxGraphModel dx="1426" dy="794" grid="1" gridSize="10" guides="1" tooltips="1" connect="1" arrows="1" fold="1" page="1" pageScale="1" pageWidth="827" pageHeight="1169" math="0" shadow="0">
      <root>
        <mxCell id="0" />
        <mxCell id="1" parent="0" />
        <mxCell id="L-b4eYi8AkZmki4z9Wjc-21" value="" style="rounded=0;whiteSpace=wrap;html=1;" parent="1" vertex="1">
          <mxGeometry x="30" y="140" width="830" height="400" as="geometry" />
        </mxCell>
        <mxCell id="L-b4eYi8AkZmki4z9Wjc-11" value="" style="rounded=0;whiteSpace=wrap;html=1;" parent="1" vertex="1">
          <mxGeometry x="294" y="220" width="266" height="110" as="geometry" />
        </mxCell>
        <mxCell id="L-b4eYi8AkZmki4z9Wjc-12" value="" style="rounded=0;whiteSpace=wrap;html=1;fillColor=#f5f5f5;strokeColor=#666666;fontColor=#333333;" parent="1" vertex="1">
          <mxGeometry x="340" y="230" width="190" height="20" as="geometry" />
        </mxCell>
        <mxCell id="L-b4eYi8AkZmki4z9Wjc-13" value="" style="rounded=0;whiteSpace=wrap;html=1;fillColor=#f5f5f5;strokeColor=#666666;fontColor=#333333;" parent="1" vertex="1">
          <mxGeometry x="340" y="260" width="190" height="20" as="geometry" />
        </mxCell>
        <mxCell id="L-b4eYi8AkZmki4z9Wjc-14" value="onChange" style="rounded=0;whiteSpace=wrap;html=1;fillColor=#f5f5f5;strokeColor=#666666;fontColor=#333333;" parent="1" vertex="1">
          <mxGeometry x="340" y="290" width="190" height="20" as="geometry" />
        </mxCell>
        <mxCell id="L-b4eYi8AkZmki4z9Wjc-18" value="" style="endArrow=classic;html=1;entryX=0.526;entryY=-0.027;entryDx=0;entryDy=0;entryPerimeter=0;" parent="1" edge="1">
          <mxGeometry width="50" height="50" relative="1" as="geometry">
            <mxPoint x="434" y="190" as="sourcePoint" />
            <mxPoint x="433.91599999999994" y="219.02999999999997" as="targetPoint" />
          </mxGeometry>
        </mxCell>
        <mxCell id="L-b4eYi8AkZmki4z9Wjc-19" value="首次渲染&lt;br&gt;defaultData" style="text;html=1;align=center;verticalAlign=middle;resizable=0;points=[];autosize=1;strokeColor=none;" parent="1" vertex="1">
          <mxGeometry x="395" y="160" width="80" height="30" as="geometry" />
        </mxCell>
        <mxCell id="L-b4eYi8AkZmki4z9Wjc-22" value="组织外层提交数据，标记勾选，取消勾选" style="text;html=1;align=center;verticalAlign=middle;resizable=0;points=[];autosize=1;strokeColor=none;" parent="1" vertex="1">
          <mxGeometry x="440" y="430" width="230" height="20" as="geometry" />
        </mxCell>
        <mxCell id="XcSG3mJqiO2_OLah6neF-1" value="开始数据为空，&lt;br&gt;操作一通还是空，&lt;br&gt;不提交后端数据" style="rounded=0;whiteSpace=wrap;html=1;" vertex="1" parent="1">
          <mxGeometry x="900" y="190" width="120" height="60" as="geometry" />
        </mxCell>
        <mxCell id="XcSG3mJqiO2_OLah6neF-2" value="小表格" style="text;html=1;align=center;verticalAlign=middle;resizable=0;points=[];autosize=1;strokeColor=none;" vertex="1" parent="1">
          <mxGeometry x="777" y="160" width="50" height="20" as="geometry" />
        </mxCell>
        <mxCell id="XcSG3mJqiO2_OLah6neF-3" value="" style="rounded=0;whiteSpace=wrap;html=1;" vertex="1" parent="1">
          <mxGeometry x="70" y="630" width="1220" height="510" as="geometry" />
        </mxCell>
        <mxCell id="XcSG3mJqiO2_OLah6neF-4" value="" style="rounded=0;whiteSpace=wrap;html=1;fillColor=#f5f5f5;strokeColor=#666666;fontColor=#333333;" vertex="1" parent="1">
          <mxGeometry x="108" y="705" width="892" height="160" as="geometry" />
        </mxCell>
        <mxCell id="XcSG3mJqiO2_OLah6neF-5" value="" style="rounded=0;whiteSpace=wrap;html=1;fillColor=#f5f5f5;strokeColor=#666666;fontColor=#333333;" vertex="1" parent="1">
          <mxGeometry x="110" y="900" width="890" height="160" as="geometry" />
        </mxCell>
        <mxCell id="XcSG3mJqiO2_OLah6neF-6" value="渲染区块，map区块" style="text;html=1;align=center;verticalAlign=middle;resizable=0;points=[];autosize=1;strokeColor=none;" vertex="1" parent="1">
          <mxGeometry x="345" y="655" width="120" height="20" as="geometry" />
        </mxCell>
        <mxCell id="XcSG3mJqiO2_OLah6neF-7" value="小表格" style="rounded=0;whiteSpace=wrap;html=1;" vertex="1" parent="1">
          <mxGeometry x="150" y="730" width="500" height="110" as="geometry" />
        </mxCell>
        <mxCell id="XcSG3mJqiO2_OLah6neF-8" value="区块" style="text;html=1;align=center;verticalAlign=middle;resizable=0;points=[];autosize=1;strokeColor=none;" vertex="1" parent="1">
          <mxGeometry x="950" y="720" width="40" height="20" as="geometry" />
        </mxCell>
        <mxCell id="XcSG3mJqiO2_OLah6neF-9" value="取消" style="rounded=0;whiteSpace=wrap;html=1;" vertex="1" parent="1">
          <mxGeometry x="240" y="1080" width="120" height="40" as="geometry" />
        </mxCell>
        <mxCell id="XcSG3mJqiO2_OLah6neF-10" value="确定" style="rounded=0;whiteSpace=wrap;html=1;" vertex="1" parent="1">
          <mxGeometry x="414" y="1080" width="120" height="40" as="geometry" />
        </mxCell>
        <mxCell id="XcSG3mJqiO2_OLah6neF-11" value="小表格" style="rounded=0;whiteSpace=wrap;html=1;" vertex="1" parent="1">
          <mxGeometry x="140" y="925" width="530" height="110" as="geometry" />
        </mxCell>
        <mxCell id="XcSG3mJqiO2_OLah6neF-12" value="区块" style="text;html=1;align=center;verticalAlign=middle;resizable=0;points=[];autosize=1;strokeColor=none;" vertex="1" parent="1">
          <mxGeometry x="950" y="905" width="40" height="20" as="geometry" />
        </mxCell>
        <mxCell id="XcSG3mJqiO2_OLah6neF-15" value="fetch数据" style="text;html=1;align=center;verticalAlign=middle;resizable=0;points=[];autosize=1;strokeColor=none;" vertex="1" parent="1">
          <mxGeometry x="670" y="740" width="70" height="20" as="geometry" />
        </mxCell>
        <mxCell id="L-b4eYi8AkZmki4z9Wjc-27" value="" style="endArrow=classic;startArrow=classic;html=1;entryX=0;entryY=0.5;entryDx=0;entryDy=0;" parent="1" target="XcSG3mJqiO2_OLah6neF-9" edge="1" source="XcSG3mJqiO2_OLah6neF-4">
          <mxGeometry width="50" height="50" relative="1" as="geometry">
            <mxPoint x="140" y="760" as="sourcePoint" />
            <mxPoint x="90" y="1060" as="targetPoint" />
            <Array as="points">
              <mxPoint x="10" y="785" />
              <mxPoint x="10" y="970" />
              <mxPoint x="10" y="1100" />
            </Array>
          </mxGeometry>
        </mxCell>
        <mxCell id="XcSG3mJqiO2_OLah6neF-18" value="通知每个表格恢复为暂存数据" style="text;html=1;align=center;verticalAlign=middle;resizable=0;points=[];autosize=1;strokeColor=none;fillColor=#ffffff;" vertex="1" parent="1">
          <mxGeometry y="875" width="170" height="20" as="geometry" />
        </mxCell>
        <mxCell id="XcSG3mJqiO2_OLah6neF-20" value="" style="endArrow=classic;html=1;" edge="1" parent="1" target="XcSG3mJqiO2_OLah6neF-5">
          <mxGeometry width="50" height="50" relative="1" as="geometry">
            <mxPoint x="10" y="990" as="sourcePoint" />
            <mxPoint x="60" y="950" as="targetPoint" />
          </mxGeometry>
        </mxCell>
        <mxCell id="XcSG3mJqiO2_OLah6neF-21" value="format数据" style="text;html=1;align=center;verticalAlign=middle;resizable=0;points=[];autosize=1;strokeColor=none;" vertex="1" parent="1">
          <mxGeometry x="670" y="770" width="70" height="20" as="geometry" />
        </mxCell>
        <mxCell id="XcSG3mJqiO2_OLah6neF-22" value="提交全部数据" style="text;html=1;align=center;verticalAlign=middle;resizable=0;points=[];autosize=1;strokeColor=none;" vertex="1" parent="1">
          <mxGeometry x="662" y="800" width="90" height="20" as="geometry" />
        </mxCell>
        <mxCell id="XcSG3mJqiO2_OLah6neF-23" value="暂存defaultData" style="text;html=1;align=center;verticalAlign=middle;resizable=0;points=[];autosize=1;strokeColor=none;" vertex="1" parent="1">
          <mxGeometry x="752" y="740" width="100" height="20" as="geometry" />
        </mxCell>
        <mxCell id="XcSG3mJqiO2_OLah6neF-29" style="edgeStyle=orthogonalEdgeStyle;rounded=0;orthogonalLoop=1;jettySize=auto;html=1;entryX=1.004;entryY=0.615;entryDx=0;entryDy=0;entryPerimeter=0;" edge="1" parent="1" source="XcSG3mJqiO2_OLah6neF-28" target="L-b4eYi8AkZmki4z9Wjc-21">
          <mxGeometry relative="1" as="geometry">
            <mxPoint x="950" y="390" as="targetPoint" />
            <Array as="points">
              <mxPoint x="930" y="386" />
              <mxPoint x="930" y="386" />
            </Array>
          </mxGeometry>
        </mxCell>
        <mxCell id="XcSG3mJqiO2_OLah6neF-28" value="forceSetDataSource&lt;br&gt;数据变化，props.datasouce改变" style="text;html=1;align=center;verticalAlign=middle;resizable=0;points=[];autosize=1;strokeColor=none;" vertex="1" parent="1">
          <mxGeometry x="980" y="370" width="190" height="30" as="geometry" />
        </mxCell>
        <mxCell id="XcSG3mJqiO2_OLah6neF-32" value="处理排序" style="text;html=1;align=center;verticalAlign=middle;resizable=0;points=[];autosize=1;strokeColor=none;" vertex="1" parent="1">
          <mxGeometry x="670" y="830" width="60" height="20" as="geometry" />
        </mxCell>
        <mxCell id="XcSG3mJqiO2_OLah6neF-33" value="通知外层发生了变化" style="text;html=1;align=center;verticalAlign=middle;resizable=0;points=[];autosize=1;strokeColor=none;" vertex="1" parent="1">
          <mxGeometry x="752" y="770" width="120" height="20" as="geometry" />
        </mxCell>
      </root>
    </mxGraphModel>
  </diagram>
</mxfile>
